<svg id="Camada_1" data-name="Camada 1" xmlns="http://www.w3.org/2000/svg" xmlns:xlink="http://www.w3.org/1999/xlink" viewBox="0 0 233 265.11"><defs><style>.cls-1{fill:#fff;}.cls-1,.cls-2{fill-rule:evenodd;}.cls-2{fill-opacity:0.5;}.cls-3{mask:url(#mask);}.cls-4{fill:#00f0ff;}</style><mask id="mask" x="0" y="-28.65" width="260.17" height="297.23" maskUnits="userSpaceOnUse"><g id="path-1-inside-1_811_35607" data-name="path-1-inside-1 811 35607"><path class="cls-1" d="M260.17-28.65V156.24L241.51,268.58H.15V126.16H13.6V113.77H.15V-28.65Z"/></g></mask></defs><path class="cls-2" d="M229.76,1.09v241.1s-15.24,20.64-15.69,20.64H2.24c-.51,0,0-13.59,0-14.12V127.07A1.24,1.24,0,0,1,3.36,126h6.73a1.23,1.23,0,0,0,1.12-1.08l.07-9.71a1,1,0,0,0-.93-1l-7-.18A1.24,1.24,0,0,1,2.24,113V3.26A1.24,1.24,0,0,1,3.36,2.17L227.52,0C228,0,229.76.55,229.76,1.09Z"/><g class="cls-3"><path class="cls-4" d="M229.55,0H1.33C.6,0,0,.19,0,.43V3.18c0,.24.6.43,1.33.43H229.55c.73,0,1.33-.19,1.33-.43V.43C230.88.19,230.28,0,229.55,0ZM232,244.52V1.48A1.56,1.56,0,0,0,230.37,0h0a1.55,1.55,0,0,0-1.62,1.48v243a1.55,1.55,0,0,0,1.62,1.48h0A1.56,1.56,0,0,0,232,244.52ZM1.49,265H213.85c.74,0,1.34-.2,1.34-.45v-2.82c0-.25-.6-.45-1.34-.45H1.49c-.74,0-1.34.2-1.34.45v2.82C.15,264.8.75,265,1.49,265ZM.35,4.22V263A1.88,1.88,0,0,0,2,265H2A1.88,1.88,0,0,0,3.58,263V4.22A1.88,1.88,0,0,0,2,2.17H2A1.88,1.88,0,0,0,.35,4.22ZM213.59,265.11a2.35,2.35,0,0,0,1.76-.65L233,245.27s0-.07,0-.1h0c0-.83-.92-1.52-2.06-1.5-.73,0-1.4-.79-1.54-.65L210,263.25a11,11,0,0,0-.27,1.34h0A15.38,15.38,0,0,0,213.59,265.11Z"/></g><path class="cls-4" d="M12,125H2c-.55,0-1,.67-1,1.5H1c0,.83.45,1.5,1,1.5H12c.55,0,1-.67,1-1.5h0C13,125.67,12.55,125,12,125Z"/><path class="cls-4" d="M12,113H2c-.55,0-1,.67-1,1.5H1c0,.83.45,1.5,1,1.5H12c.55,0,1-.67,1-1.5h0C13,113.67,12.55,113,12,113Z"/><rect class="cls-4" x="11" y="113" width="3" height="5" rx="1.5"/><rect class="cls-4" x="11" y="116" width="3" height="5" rx="1.5"/><rect class="cls-4" x="11" y="119" width="3" height="5" rx="1.5"/><rect class="cls-4" x="11" y="122" width="3" height="5" rx="1.5"/><rect class="cls-4" x="11" y="123" width="3" height="5" rx="1.5"/></svg>