<svg id="Camada_1" data-name="Camada 1" xmlns="http://www.w3.org/2000/svg" xmlns:xlink="http://www.w3.org/1999/xlink" viewBox="0 0 232 265"><defs><style>.cls-1{fill:#fff;}.cls-1,.cls-2{fill-rule:evenodd;}.cls-2{fill-opacity:0.5;}.cls-3{mask:url(#mask);}.cls-4{fill:#00f0ff;}</style><mask id="mask" x="0" y="-28.65" width="260.09" height="297.23" maskUnits="userSpaceOnUse"><g id="path-1-inside-1_811_35607" data-name="path-1-inside-1 811 35607"><path class="cls-1" d="M260.09-28.65V156.24L241.48,268.58H.8V126.16H14.21V113.77H.8V-28.65Z"/></g></mask></defs><path class="cls-2" d="M229.76,1.09v241.1s-15.19,20.64-15.64,20.64H2.88c-.51,0,0-13.59,0-14.12V127.07A1.24,1.24,0,0,1,4,126h6.71a1.22,1.22,0,0,0,1.11-1.08l.07-9.71a.94.94,0,0,0-.92-1L4,114A1.24,1.24,0,0,1,2.88,113V3.26A1.24,1.24,0,0,1,4,2.17L227.53,0C228,0,229.76.55,229.76,1.09Z"/><g class="cls-3"><path class="cls-4" d="M232,241.82V1.46A1.32,1.32,0,0,0,230.88,0h0a1.33,1.33,0,0,0-1.12,1.46V241.82a1.33,1.33,0,0,0,1.12,1.46h0A1.32,1.32,0,0,0,232,241.82ZM2.13,265H213.9c.74,0,1.34-.14,1.34-.31v-2c0-.17-.6-.31-1.34-.31H2.13c-.73,0-1.33.14-1.33.31v2C.8,264.86,1.4,265,2.13,265ZM0,4.22V263C0,264.08.68,265,1.52,265h0C2.36,265,3,264.08,3,263V4.22c0-1.13-.67-2-1.51-2h0C.68,2.17,0,3.09,0,4.22ZM229.55,0H2C1.24,0,.65.19.65.43V3.18c0,.24.59.43,1.33.43H229.55c.74,0,1.33-.19,1.33-.43V.43C230.88.19,230.29,0,229.55,0Zm-14,264.51L232,242.56a.07.07,0,0,0,0-.11h0a3.86,3.86,0,0,0-2.8,0l-16.41,22a.09.09,0,0,0,0,.11h0A3.94,3.94,0,0,0,215.58,264.51Z"/></g></svg>