<?xml version="1.0" encoding="utf-8"?>
<!-- Generator: Adobe Illustrator 26.0.1, SVG Export Plug-In . SVG Version: 6.00 Build 0)  -->
<svg version="1.1" id="Camada_1" xmlns="http://www.w3.org/2000/svg" xmlns:xlink="http://www.w3.org/1999/xlink" x="0px" y="0px"
	 viewBox="0 0 488 20" style="enable-background:new 0 0 488 20;" xml:space="preserve">
<style type="text/css">
	.st0{fill-rule:evenodd;clip-rule:evenodd;}
</style>
<polygon class="st0" points="1081.1,-195.6 1077,-199.7 1072.9,-195.6 "/>
<polygon class="st0" points="1576.3,-205 1582.9,-205 1582.9,-205 1576.3,-205 "/>
<path class="st0" d="M232.5-228.8h-527.4v24.1H-136l7.7,7.6h12.9l16-16.7l0,0l0,0l9.2,8.8h258.6l3.3-3.3l-5.5-5.5h11l-5.5,5.5
	l3.3,3.3h57.2C231.7-213,231.7-220.9,232.5-228.8z M-66.2-208.6H-68v-5.2h1.7V-208.6z M-63.6-208.6h-1.7v-5.2h1.7V-208.6z
	 M-51.5-208.6h-1.7v-5.2h1.7V-208.6z M-30.7-208.6h-5.2v-5.2h5.2V-208.6z"/>
<path class="st0" d="M950.4-228.8c-0.2,5.1-0.3,10.4,0.6,15.8c0.6,3.5,0.9,7,1,10.5l122.1,0l2.9,2.9l8.6-8.6l5.8,5.7l293.3,0
	l7.2-7.2h33.6l12.7,12.6h5l31.2-0.1l6.2,6.1l9.2-9.2l4.7-4.7h81.7l3.3-3.3l-5.5-5.5h11l-5.5,5.5l3.3,3.3l42.2,0.3v-24.1H950.4z
	 M1443.1-202.1h-1.7v-1.7h1.7V-202.1z M1443.1-205.6h-1.7v-1.7h1.7V-205.6z M1456.5-202.1h-1.7v-5.2h1.7V-202.1z M1463.2-202.1h-1.7
	v-1.7h1.7V-202.1z"/>
<path class="st0" d="M488,0H0.4c-0.5,5.3-0.5,10.5-0.2,15.9h16.6L20,19l6.3,6.1l4.2-4.1l21.2,0.1H55l8.6-8.4h22.8l4.9,4.8l94.4,0
	l3.9-3.8l5.9,5.7l2-1.9l67.9,0l8.6,8.5l16.3-16l0,0l0,0l6.1,6h2.6l1.4-1.4l-2.3-2.2h4.5l-2.3,2.2l1.4,1.4l52.8,0v0l7.5,0l7.5,0v0
	l52.8,0l1.4-1.4l-2.2-2.2h4.5l-2.3,2.2l1.4,1.4h2.6l6.1-6l0,0l0,0l16.3,16l8.6-8.5l29.2,0c-0.1-2.3,0-5.1,0-7.5
	C488,6,487.9,3.4,488,0z M39.3,17.8h-1.2v-1.1h1.2V17.8z M43.8,17.8h-1.2v-3.5h1.2V17.8z M52.9,17.8h-1.2v-1.1h1.2V17.8z M52.9,15.5
	h-1.2v-1.1h1.2V15.5z"/>
<polygon class="st0" points="168.3,-205 175,-205 175,-205 168.4,-205 "/>
</svg>
