<svg id="Camada_1" data-name="Camada 1" xmlns="http://www.w3.org/2000/svg" viewBox="0 0 1472.8 614"><defs><style>.cls-1{fill:#db0d15;}.cls-2{fill:#fff6f6;}</style></defs><path class="cls-1" d="M313.69,556.27c9.33-9.56,20.13-20.55,26.26-25.57-1.71-.24-4.66-.48-7.85-1-6.87,5.74-15.22,14.58-22.82,22.71-9.82,10.28-17.67,18.88-17.67,18.88l-.25.24c-6.14,1.67-16.93,4.54-24.3,6.69-10.55,2.87-20.12,2.15-20.12,9.08,0,0-11.05,5.74-8.59,14.34,0,0,22.09-17,40.74-20.07,0,0-11.54,7.41-10.55,17,0,0,15.46-22.71,33.62-8.85,0,0-8.1-10.75-4.66-16.49C300.69,569.9,306.82,563.44,313.69,556.27Zm-34.6-266.49a6.35,6.35,0,0,1-2.95.48,8.66,8.66,0,0,1-7.6-4.78c0-.24-.25-.48-.25-1l-2.45.71c2,5.5,8.09,8.85,13.49,7.17a10.11,10.11,0,0,0,3.44-2.15,10.86,10.86,0,0,0,2.7-11.47l-5.4,1.67a8.21,8.21,0,0,1,.49,2.39,6.63,6.63,0,0,1-.49,2.15l2.45,1.44a10.4,10.4,0,0,1-1.47,1.67C280.56,289.07,279.82,289.31,279.09,289.78Zm221.37-17.2-108,25.57h0L603.79,209l-174,20.8L523,163.59,422.66,201.83h0l15-29.4-71.17,50-.49-1L467.33,8,302.4,198l-1-103.73L240.8,232.66,237.61,192l-29.7,105.88h0a30.57,30.57,0,0,1,9.58-4.3h0c.49,0,.73-.24,1.22-.24H219c.49,0,.74-.24,1.23-.24h.24c.49,0,.74-.24,1.23-.24h4.66a11.17,11.17,0,0,1,1.23.24h.24a3.53,3.53,0,0,1,1.48.48,27.77,27.77,0,0,0,18.65,0s9.57,6,9.57,11h0s-12.52.72-12.52-4.54c0,0-16.19-5.5-38.77,2.63l47.61,20.08c0-.24-2.45-8.85.25-11.95.73-1,2.45-1.44,4.66-.72a1.88,1.88,0,0,0,2-.24c3.68-3.58-14.23-36.09-14.23-36.09s-16-1.43-29.95,12.67a16,16,0,0,0-2.69,3.11h0A58.78,58.78,0,0,1,227.3,274a45.25,45.25,0,0,1,16.94-8.84c1.72-4.3-.49-1.44,3.19-3.83h0c1.72-11.47,8.59-40.63,31.17-65.72a42.09,42.09,0,0,1,4.66-4.78s-5.64,10.75-5.64,18.16a117.58,117.58,0,0,1,14-16.25h0a.24.24,0,0,1-.25.24c-1.47,3.11-12.27,25.81-11.29,32.5v.24l22.09-19.84h0c-.74.72-20.86,27.25-22.83,36.33h0L312.71,219h0c0,.24-4.17,5.74-5.89,8.84-1.23,2.15-1.47,2.87-1.47,3.11v.24l17.92-7.65a22.25,22.25,0,0,1-2,2.15l-6.87,6.69-1.72,1.68-12.27,12-.24.24-9.33,9.32L285,261.34h0s-4.66,4.78-5.4,7.65c-.49,2.39,2.21,4.06,2.21,4.06h0a12.93,12.93,0,0,1,5.64,5.74,10.41,10.41,0,0,1,1,4.78,12.68,12.68,0,0,1-3.68,8.84,13.75,13.75,0,0,1-9.57,3.59,15.24,15.24,0,0,1-8.83-3.11c.49.48,7.11,8.61,18.89,2.39l15-10.51,1.22-.48,15.46-11a88.65,88.65,0,0,1,10.31,14.82h0c-9.32,8.61-24.79,23.19-40.25,39.2-9.32,9.56-18.4,19.84-26.5,29.16h0l5.4-25.34h0l.49-2.15h-1a.24.24,0,0,0-.24.24l-.25.24-.24.24-.25.24-.24.24-.25.24a.23.23,0,0,0-.24.23l-.25.24-.24.24a.24.24,0,0,0-.25.24c0,.24-.24.24-.49.24l-.25.24c-.24,0-.24.24-.49.48l-.24.24c0,.24-.25.24-.49.47l-.25.24-.24.24h0L260,334c-.25,0-.25.24-.5.48L259,335l-.49.47c0,.24-.24.24-.24.48l-.25.24v.24l-.24.24-.49.48h0l-.25.24a.24.24,0,0,1-.25.24c-.24.24-.24.47-.49.71l-.49.48c-.24.24-.49.48-.49.72-.24.24-.24.48-.49.48l-.73.71c-.25.24-.25.48-.5.72s-.49.48-.49.72c-.24.24-.24.48-.49.48a3.12,3.12,0,0,0-.73.95c-.25.24-.25.48-.49.48-.25.24-.5.72-.74,1,0,.23-.25.23-.25.47-.49.48-.73,1.2-1.22,1.68h0c-.49.47-.74,1.19-1.23,1.67,0,.24-.25.24-.25.48-.24.48-.49.71-.73,1.19-.25.24-.25.48-.49.72-.25.48-.49.72-.74,1.19-.24.24-.24.48-.49.72a5.22,5.22,0,0,1-.74,1.2c0,.24-.24.47-.49.71a5.23,5.23,0,0,1-.73,1.2c-.25.24-.25.48-.49.72-.25.47-.5.95-.74,1.43,0,.24-.25.48-.49.72-1.23,2.15-2.46,4.3-3.68,6.93h0l-6.14,1c1.23-3.1,2.46-5.73,3.68-8.6L225.34,372l10.06-.95c-8.59,19.36-14.72,44-14.72,79.82l8.34-5c7.36,39.68,40.74,57.13,40.74,57.13v-.24c18.41,12,41,20.07,66,23.42h0a69.17,69.17,0,0,0,7.12.72h0c.49,0,.74.24,1.23.24a162.91,162.91,0,0,0,39-1.2v1.43c0,7.89,4.42,14.34,10.31,14.82-11.78,19.6-21.35,45.41-21.35,45.65a16.62,16.62,0,0,1-2.21,4.07,56,56,0,0,0-6.14,1.67h0c-1-1-10.31-2.63-19.88.72h0a30.11,30.11,0,0,0-14.23,13.38c3.68-2.87,11-8.13,16.69-7.41-7.12,3.82-18.66,11.23-20.37,21.75,0,0,41.47-28.2,62.09-23.18,0,0-2.95,3.34,3.92,15.53l3.2-11.47c3.68-11-10.56-12.67-16.45-12.91v-.24s.74-1.67,1.72-4.54c3.44-8.84,11.78-28.44,20.86-42.3.25-.24.25-.48.25-1l-1.72-2.15a10.73,10.73,0,0,0,1.72-2.15,16.14,16.14,0,0,0,2.7-9.08,28.69,28.69,0,0,0-3.19-12.43h0l5.15-2.39c.24.72.49,1.2.74,1.91a.84.84,0,0,0,.24.48c.25.48.25.72.49,1.2,0,.24.25.47.25.71.24.48.24,1,.49,1.2,0,.24,0,.24.24.48l30.19-9.09L432,505.37h0l-.25-.24h-.24L316.88,403.79h0c31.91,15.06,69.21,32.74,132.29,61.18,62.34,28,101.85,44.22,122,52.35.24,0,.24.24.49.24h0c2.94,1.19,5.4,2.15,7.6,2.86,4.18,1.68,8.59,3.11,8.84,3.35.25-.24.74-.24,1-.48L357.13,368.18ZM339.71,320.14h0L305.1,345.71l24.79-53.3h0a133.29,133.29,0,0,1,9.82,27.73ZM463.4,503.93l.74,4.06h0l40.5,23.19,10.3,5.73-5.4-14.1c33.38,9.56,60.62,10.28,78.79,1.68h0C556.67,533.81,478.62,508,463.4,503.93Z" transform="translate(-206.2 -8)"/><path d="M245.47,299.58c0,5.26,12.51,4.55,12.51,4.55,0-5-9.57-11-9.57-11a28.8,28.8,0,0,1-18.9,0c-3.92-1.43-8.59-1-12,0a107.29,107.29,0,0,0-10.8,8.84C229.27,293.85,245.47,299.58,245.47,299.58Zm84.42-6.93L305.1,346l34.61-25.81A140.36,140.36,0,0,0,329.89,292.65ZM588.08,524.49s-77.8-28.45-271.44-120L432,506.8h0c10.31-4.06,17.42-7.17,31.9,1l-.73-4.07C478.37,508,556.91,533.81,588.08,524.49Zm-187.26-6.93c2.21,5,3.19,9.08,3.19,12.42a18.35,18.35,0,0,1-2.7,9.09c-.74.95-1.72,2.15-1.72,2.15l3.44,4.54c.24-.24,7.12-5,7.12-15.78a35.1,35.1,0,0,0-3.69-14.82Zm-69.21,12.18c5.4.72,10.55,1.2,10.55,1.2l.25-2.87s-4.91-.48-10.31-1.19Zm-4.17-241.87a67.51,67.51,0,0,0-10.31-14.82l-30.92,22.23c-12.52,6.22-18.9-2.39-18.9-2.39a13.14,13.14,0,0,0,8.83,3.11c7.37,0,13.26-5.5,13.26-12.43a10.41,10.41,0,0,0-1-4.78,12.93,12.93,0,0,0-5.64-5.74h0s-2.7-1.43-2.21-4.06c.49-2.39,5.4-7.65,5.4-7.65h0l15.22-15,.24-.24,13.75-13.63,6.87-6.93a21.23,21.23,0,0,0,2-2.15L306.09,231s-.25-.24,1.47-3.35,5.89-8.84,5.89-8.84L280.07,242c2-9.08,22.82-36.32,22.82-36.32l-22.08,19.83c-1.48-6.93,11.53-33,11.53-33a130.94,130.94,0,0,0-14,16.25c0-7.65,5.65-18.16,5.65-18.16-26.75,26.05-34.36,58.79-36.08,71-3.68,2.39-1.47-.48-3.19,3.83-17.92,4.78-28,20.55-30.43,24.37C228.78,272.34,247.43,274,247.43,274s21.84,39.44,12.27,36.33-4.91,12.43-4.91,12.43l-17.91-7.65c2.94,5.5,8.83,18.88,5.39,33.22a99.19,99.19,0,0,0-10.55,20.32l6.14-1c1.22-2.39,2.45-4.78,3.43-7.17.25-.24.25-.48.49-.72l.74-1.43c.25-.24.25-.48.49-.72.25-.48.49-.72.74-1.19.24-.24.24-.48.49-.72a5.23,5.23,0,0,1,.73-1.2c.25-.23.25-.47.5-.71.24-.48.49-.72.73-1.2,0-.24.25-.48.49-.71.25-.48.49-.72.74-1.2a.84.84,0,0,1,.24-.48,7.44,7.44,0,0,1,1.23-1.67h0c.49-.48.74-1.2,1.23-1.67,0-.24.24-.24.24-.48.25-.48.49-.72.74-1.2l.49-.47c.25-.24.49-.72.74-1s.24-.48.49-.48l.73-.72c.25-.23.25-.47.5-.47.24-.24.49-.48.49-.72.24-.24.24-.48.49-.48.24-.24.49-.48.49-.72l.49-.47c.24-.24.49-.48.49-.72l.49-.48.49-.48.49-.47.49-.48.49-.48.49-.48.5-.48c.24-.24.24-.47.49-.47a.24.24,0,0,0,.24-.24l.74-.72a.24.24,0,0,0,.24-.24c0-.24.25-.24.49-.48l.25-.24c.24,0,.24-.24.49-.24a.23.23,0,0,0,.25-.23.24.24,0,0,1,.24-.24l.25-.24.24-.24.25-.24.24-.24.25-.24a.24.24,0,0,0,.24-.24.24.24,0,0,0,.25-.24.24.24,0,0,0,.24-.24h1l-.49,2.15h0l-5.4,25.34C281.79,330.65,313,301.26,327.44,287.87Zm-61.6-2.63,2.45-.71c0,.24.25.71.25,1,1.22,3.11,4.17,4.78,7.6,4.78a12.53,12.53,0,0,0,2.95-.48,7.75,7.75,0,0,0,3.68-3.1l-2.45-1.44a6.9,6.9,0,0,0,.49-2.15,7.09,7.09,0,0,0-.49-2.39l5.4-1.67a10.62,10.62,0,0,1-6.14,13.62C273.69,293.85,267.8,291,265.84,285.24Z" transform="translate(-206.2 -8)"/><path class="cls-2" d="M772.15,327.79c-3.68-1-9.33-1.44-16.44-1.44H740.24v85.8L742,411l12.76-8.84.5-.24V377.5h4.9c9.08,0,16.45-2.39,21.85-6.93a23.59,23.59,0,0,0,8.34-18.64c0-7.41-2.45-13.39-7.61-18.17A23.45,23.45,0,0,0,772.15,327.79Zm-13,37.52h-3.92V339h4.41c11.78,0,17.67,4.06,17.67,12.67C777.3,360.77,771.17,365.31,759.14,365.31Zm95.72,10.28a24,24,0,0,0,12.76-8.13,25.1,25.1,0,0,0,5.4-15.77c0-7.89-2.94-14.1-8.84-18.88-5.15-4.07-13.49-6.22-25-6.22H823.2v85.8l1.47-1.19,12.76-8.84.49-.24V377.5h.74L862.71,411l.49.72.74-.48,10.31-7.41.73-.48-.49-.72Zm-16.69-10.28v-1h0V340.21h0V339h4.42c11.78,0,17.67,4.06,17.67,12.67,0,9.08-5.89,13.62-18.16,13.62ZM631,328.74c-4.91-1.67-12-2.39-20.62-2.39H591.76V411h18.65c8.84,0,15.47-.72,20.37-2.39a39.92,39.92,0,0,0,14.73-8.37q14-12.18,14-31.54c0-12.91-4.42-23.67-13.5-31.31A37.59,37.59,0,0,0,631,328.74Zm4.42,61.19a22.94,22.94,0,0,1-10.06,5.49c-3.69,1.2-8.35,1.68-14,1.68h-4.67V340h4.67c10.55,0,18.65,2.39,24.05,7.4,5.89,5.26,9.08,12.67,9.08,21.52C644.28,377.5,641.34,384.43,635.45,389.93Zm-98.17-51.39a31.49,31.49,0,0,1,16.2,4.54l1,.48.49-1,6.13-10.51.49-1-1-.48a46.3,46.3,0,0,0-22.58-6c-14.23,0-26,5-35.09,15.53-7.37,8.61-11.05,17.93-11.05,28.92a41.88,41.88,0,0,0,13,30.84c8.84,8.6,19.39,12.66,31.91,12.66a48.2,48.2,0,0,0,23.56-6.21l.49-.24v-1l-6.14-10.51-.49-1-1,.48c-1.72,1-3.44,1.91-4.91,2.63-2.94,1.43-6.87,1.91-11,1.91a28.81,28.81,0,0,1-21.36-8.84,29.21,29.21,0,0,1-8.83-21.27,29.68,29.68,0,0,1,8.83-21.75A30.73,30.73,0,0,1,537.28,338.54Zm981.7,1.67.25-.23L1531,328.26l1.72-1.67h-50.56v84.85H1519l.25-.24,11.53-11.71,1.72-1.68h-35.34V371.52h11l.25-.24,12-11.71,1.72-1.67h-25v-17H1519Zm-255.73,0h19.39v71.94l1.71-1.19,12.77-8.84.49-.24V340.21H1317V326.35h-54v13.86ZM947.63,324.92a44.51,44.51,0,0,0-32.15,12.9c-8.84,8.61-13.5,18.65-13.5,30.6,0,13.38,4.91,24.61,14.73,33A46.31,46.31,0,0,0,979.29,400c9.08-8.61,13.5-18.65,13.5-30.84a41.71,41.71,0,0,0-13.25-31.07A43.65,43.65,0,0,0,947.63,324.92ZM969,390.17a30.8,30.8,0,0,1-43,.24,29.13,29.13,0,0,1-9.32-22,28.61,28.61,0,0,1,8.83-21.27,30,30,0,0,1,21.84-8.85,28.93,28.93,0,0,1,21.6,8.85,29.7,29.7,0,0,1,8.84,21.51C978.06,377,974.87,384.19,969,390.17Zm652.84-52.82a42.74,42.74,0,0,0-15-8.61c-4.9-1.67-12-2.39-20.61-2.39h-18.65V411h18.65c8.83,0,15.46-.72,20.37-2.39a39.88,39.88,0,0,0,14.72-8.37q14-12.18,14-31.54C1635.31,355.75,1630.65,345.23,1621.82,337.35Zm-10.56,52.58a22.83,22.83,0,0,1-10.06,5.49c-3.68,1.2-8.59,1.68-14,1.68h-4.66V340h4.66c10.55,0,18.65,2.39,24,7.4,5.89,5.26,9.08,12.67,9.08,21.52A27.59,27.59,0,0,1,1611.26,389.93ZM1425,375.59a24,24,0,0,0,12.77-8.13,25.16,25.16,0,0,0,5.4-15.77,23.53,23.53,0,0,0-8.59-18.88c-5.16-4.07-13.5-6.22-25-6.22h-16v85.8l1.72-1.19,12.76-8.84.49-.24V377.5h.74l24,33.46.73.72.74-.48,10.31-7.41.74-.48-.5-.72Zm-16.93-10.28V339h4.42c11.78,0,17.67,4.06,17.67,12.67,0,9.08-5.89,13.62-18.16,13.62Zm-185.54-38.72-31.17,31.07v-32.5l-1.72,1.19-12.76,8.85-.49.23v76.49l1.71-1.2,12.77-8.84.49-.24V376.07l1.47-1.44,29.7,36.09.49.72.73-.48,11-7.41,1-.72-.74-.95-31.66-37.29,37.8-36.8,1.72-1.68h-20.13Zm-183.58,8.84-.49.24v45.41q0,10.41-2.21,14.34c-1.23,2.39-3.44,3.59-7.12,3.59a15.24,15.24,0,0,1-8.1-2.87l-1-.48-.49,1-6.14,10.75-.49,1,.74.48a31.69,31.69,0,0,0,15.46,4.06q11.42,0,17.67-7.89a23.66,23.66,0,0,0,4.91-9.56c1-3.1,1.47-8.12,1.47-14.57V325.4l-1.72,1.19Zm91.79,4.78.24-.23,11.78-11.72,1.72-1.67h-50.31v84.85H1131l.25-.24,11.53-11.71,1.72-1.68h-35.59V371.52h11.05l.24-.24,12-11.71,1.72-1.67h-25v-17H1131v-.72Z" transform="translate(-206.2 -8)"/><path class="cls-2" d="M1663.78,354.32a14.83,14.83,0,1,1,0-29.64,14.83,14.83,0,1,1,0,29.64Zm0-27.25a12.62,12.62,0,0,0-13,12.67,12.76,12.76,0,0,0,13,12.66c7.37,0,13-5.49,13-12.66C1676.79,332.33,1670.9,327.07,1663.78,327.07Zm4.18,21-4.42-6.93h-3v6.93h-2.45v-17h7.12c2.94,0,5.64,1.91,5.64,5a5.19,5.19,0,0,1-4.42,5l4.67,6.93ZM1665,333h-4.66v6H1665a3.18,3.18,0,0,0,3.19-2.87A3.21,3.21,0,0,0,1665,333Z" transform="translate(-206.2 -8)"/></svg>