<svg id="Camada_1" data-name="Camada 1" xmlns="http://www.w3.org/2000/svg" viewBox="0 0 300.66 497.92"><defs><style>.cls-1{fill:#db0d15;}</style></defs><path class="cls-1" d="M208.63,445.62c7.05-7.75,15.22-16.67,19.86-20.74-1.3-.19-3.53-.39-5.94-.77-5.2,4.65-11.51,11.82-17.26,18.41-7.42,8.33-13.36,15.31-13.36,15.31l-.19.19c-4.64,1.36-12.8,3.69-18.37,5.43-8,2.33-15.22,1.75-15.22,7.37,0,0-8.35,4.65-6.5,11.63,0,0,16.71-13.77,30.81-16.29,0,0-8.72,6-8,13.77,0,0,11.69-18.42,25.43-7.18,0,0-6.13-8.72-3.53-13.37C198.79,456.67,203.43,451.43,208.63,445.62ZM182.46,229.51a4.5,4.5,0,0,1-2.23.39,6.53,6.53,0,0,1-5.75-3.88c0-.19-.18-.38-.18-.77l-1.86.58c1.48,4.46,6.12,7.17,10.21,5.81a7.62,7.62,0,0,0,2.6-1.74,9.28,9.28,0,0,0,2-9.3L183.2,222a7,7,0,0,1,.38,1.94,5.86,5.86,0,0,1-.38,1.75l1.86,1.16a8.54,8.54,0,0,1-1.11,1.36C183.58,228.93,183,229.12,182.46,229.51Zm167.41-13.95L268.21,236.3h0L428,164,296.42,180.86l70.52-53.68-75.91,31h0l11.32-23.84-53.82,40.51-.37-.78L324.81,1,200.09,155.09,199.35,71,153.51,183.19l-2.41-32.95L128.64,236.1h0a22.67,22.67,0,0,1,7.24-3.49h0c.37,0,.56-.19.93-.19H137c.37,0,.56-.19.93-.19h.19c.37,0,.55-.2.92-.2h3.53a7.82,7.82,0,0,1,.93.2h.18a2.62,2.62,0,0,1,1.12.38,19.63,19.63,0,0,0,14.1,0s7.24,4.85,7.24,8.92h0s-9.47.58-9.47-3.68c0,0-12.24-4.46-29.32,2.13l36,16.28c0-.19-1.86-7.17.18-9.69.56-.78,1.86-1.16,3.53-.58a1.35,1.35,0,0,0,1.48-.2c2.79-2.9-10.76-29.26-10.76-29.26s-12.07-1.17-22.64,10.27a12.91,12.91,0,0,0-2,2.52h0a47.19,47.19,0,0,1,10.21-12.6,33.5,33.5,0,0,1,12.81-7.17c1.3-3.49-.37-1.16,2.41-3.1h0c1.3-9.31,6.5-32.95,23.57-53.3a33.39,33.39,0,0,1,3.53-3.88S181.35,158,181.35,164a93.58,93.58,0,0,1,10.58-13.18h0a.19.19,0,0,1-.19.2c-1.11,2.52-9.28,20.93-8.54,26.35v.2l16.71-16.09h0c-.56.58-15.78,22.1-17.26,29.46h0l25.24-18.8h0c0,.2-3.16,4.65-4.46,7.17a9.08,9.08,0,0,0-1.11,2.52v.2l13.55-6.21a18,18,0,0,1-1.49,1.75L209.19,183l-1.3,1.35L198.61,194l-.19.2-7,7.56-4.45,4.65h0s-3.53,3.87-4.09,6.2c-.37,1.94,1.67,3.29,1.67,3.29h0a10.18,10.18,0,0,1,4.27,4.66,8.94,8.94,0,0,1,.74,3.87,10.66,10.66,0,0,1-2.78,7.17,10,10,0,0,1-7.24,2.91,11,11,0,0,1-6.68-2.52c.37.39,5.38,7,14.29,1.94l11.32-8.53.93-.39L211,216.14a71.68,71.68,0,0,1,7.8,12h0c-7.05,7-18.75,18.8-30.44,31.78-7.05,7.75-13.92,16.09-20,23.65h0L172.44,263h0l.37-1.74h-.74a.19.19,0,0,0-.19.19l-.18.2-.19.19-.18.19-.19.2-.18.19a.19.19,0,0,0-.19.2l-.19.19-.18.19a.19.19,0,0,0-.19.2c0,.19-.18.19-.37.19l-.18.19c-.19,0-.19.2-.38.39l-.18.2c0,.19-.19.19-.37.38l-.19.2-.18.19h0l-.37.39c-.19,0-.19.19-.38.39l-.37.38-.37.39c0,.2-.18.2-.18.39l-.19.19v.2l-.18.19-.38.39h0l-.18.19a.19.19,0,0,1-.19.2c-.18.19-.18.38-.37.58l-.37.39c-.18.19-.37.38-.37.58-.19.19-.19.38-.37.38l-.56.59c-.18.19-.18.38-.37.58s-.37.39-.37.58c-.19.19-.19.39-.37.39a2.55,2.55,0,0,0-.56.77c-.18.2-.18.39-.37.39-.19.19-.37.58-.56.77,0,.2-.18.2-.18.39-.37.39-.56,1-.93,1.36h0c-.37.39-.56,1-.93,1.36,0,.19-.18.19-.18.38-.19.39-.38.58-.56,1-.19.2-.19.39-.37.58-.19.39-.37.59-.56,1-.18.2-.18.39-.37.58a4.14,4.14,0,0,1-.56,1c0,.2-.18.39-.37.59a4.28,4.28,0,0,1-.55,1c-.19.2-.19.39-.38.59l-.55,1.16c0,.19-.19.39-.37.58-.93,1.74-1.86,3.49-2.79,5.62h0l-4.64.78c.93-2.52,1.86-4.66,2.79-7l-7.61,11.05,7.61-.78c-6.5,15.7-11.14,35.66-11.14,64.74l6.31-4.07c5.57,32.17,30.81,46.32,30.81,46.32v-.2c13.92,9.7,31,16.29,49.92,19h0a48.15,48.15,0,0,0,5.39.58h0c.37,0,.55.19.92.19a114.71,114.71,0,0,0,29.51-1v1.16c0,6.39,3.34,11.63,7.8,12-8.91,15.9-16.15,36.83-16.15,37a13.22,13.22,0,0,1-1.67,3.3,40.64,40.64,0,0,0-4.64,1.36h0c-.74-.78-7.79-2.14-15,.58h0a23.46,23.46,0,0,0-10.77,10.85c2.79-2.32,8.36-6.59,12.62-6-5.38,3.1-14.1,9.11-15.4,17.64,0,0,31.37-22.87,47-18.8,0,0-2.22,2.71,3,12.6l2.42-9.31c2.78-8.91-8-10.27-12.44-10.46v-.2s.56-1.35,1.3-3.68c2.6-7.17,8.91-23.06,15.78-34.3.18-.2.18-.39.18-.78l-1.3-1.74a8.66,8.66,0,0,0,1.3-1.75,13.68,13.68,0,0,0,2-7.36,24.51,24.51,0,0,0-2.41-10.08h0l3.9-1.94c.18.58.37,1,.56,1.55a.72.72,0,0,0,.18.39c.19.39.19.58.37,1,0,.19.19.39.19.58.18.39.18.77.37,1,0,.19,0,.19.18.39l22.83-7.37-5.19-4.26h0l-.19-.2h-.19L211,322h0c24.13,12.21,52.34,26.56,100,49.62,47.14,22.68,77,35.86,92.24,42.45.18,0,.18.19.37.19h0c2.22,1,4.08,1.75,5.75,2.33,3.16,1.35,6.5,2.52,6.68,2.71.19-.19.56-.19.74-.39L241.48,293.09ZM228.3,254.13h0l-26.17,20.74,18.75-43.23h0a113,113,0,0,1,7.42,22.49Zm93.54,149,.56,3.3h0L353,425.27l7.8,4.65-4.09-11.43c25.24,7.75,45.84,8.33,59.58,1.35h0C392.37,427.4,333.35,406.47,321.84,403.17Z" transform="translate(-127.34 -1)"/><path d="M157,237.46c0,4.26,9.46,3.68,9.46,3.68,0-4.07-7.24-8.91-7.24-8.91a20.47,20.47,0,0,1-14.29,0,14.48,14.48,0,0,0-9.09,0,82.73,82.73,0,0,0-8.17,7.17C144.79,232.81,157,237.46,157,237.46Zm63.84-5.62-18.75,43.22,26.17-20.93A118.66,118.66,0,0,0,220.88,231.84Zm195.24,188s-58.83-23.06-205.26-97.29l87.23,82.95h0c7.79-3.3,13.17-5.82,24.12.77l-.55-3.29C333.16,406.47,392.55,427.4,416.12,419.84Zm-141.6-5.62a27.21,27.21,0,0,1,2.41,10.08,15.69,15.69,0,0,1-2,7.37c-.56.77-1.3,1.74-1.3,1.74l2.6,3.68c.18-.19,5.38-4.07,5.38-12.79a30,30,0,0,0-2.79-12Zm-52.34,9.89c4.08.58,8,1,8,1l.18-2.33s-3.71-.39-7.79-1ZM219,228a54.45,54.45,0,0,0-7.79-12l-23.39,18c-9.46,5-14.29-1.94-14.29-1.94a9.55,9.55,0,0,0,6.68,2.52,10,10,0,0,0,10-10.08,9,9,0,0,0-.75-3.87,10.16,10.16,0,0,0-4.26-4.66h0a3.36,3.36,0,0,1-1.67-3.29c.37-1.94,4.08-6.2,4.08-6.2h0l11.51-12.21.18-.2,10.39-11,5.2-5.63a17.29,17.29,0,0,0,1.49-1.74l-13.55,6.2s-.19-.19,1.11-2.71,4.45-7.17,4.45-7.17l-25.24,18.8c1.49-7.37,17.26-29.46,17.26-29.46l-16.7,16.08c-1.11-5.62,8.72-26.74,8.72-26.74a104,104,0,0,0-10.57,13.18c0-6.2,4.26-14.73,4.26-14.73-20.23,21.12-26,47.68-27.28,57.56-2.78,1.94-1.11-.39-2.41,3.1-13.55,3.88-21.16,16.67-23,19.77,10.95-14.15,25.05-12.79,25.05-12.79s16.52,32,9.28,29.46-3.71,10.08-3.71,10.08l-13.55-6.2c2.23,4.45,6.68,15.31,4.08,26.94a83.05,83.05,0,0,0-8,16.47l4.64-.77c.93-1.94,1.86-3.88,2.6-5.82.19-.19.19-.39.37-.58l.56-1.16c.18-.2.18-.39.37-.58.19-.39.37-.58.56-1,.18-.2.18-.39.37-.58a4.16,4.16,0,0,1,.55-1c.19-.2.19-.39.38-.58.18-.39.37-.59.55-1,0-.2.19-.39.37-.58.19-.39.37-.59.56-1a.67.67,0,0,1,.19-.39,5.73,5.73,0,0,1,.92-1.36h0c.38-.39.56-1,.93-1.36,0-.19.19-.19.19-.38.18-.39.37-.58.55-1l.38-.39c.18-.19.37-.58.55-.77s.19-.39.37-.39l.56-.58c.19-.2.19-.39.37-.39.19-.2.37-.39.37-.58.19-.2.19-.39.37-.39.19-.19.38-.39.38-.58L165,270c.18-.19.37-.39.37-.58l.37-.39.37-.39.37-.38.37-.39.37-.39.37-.39.38-.38c.18-.2.18-.39.37-.39s.18-.2.18-.2l.56-.58c.18,0,.18-.19.18-.19,0-.2.19-.2.38-.39l.18-.19c.19,0,.19-.2.37-.2a.19.19,0,0,0,.19-.19.18.18,0,0,1,.18-.19l.19-.2.19-.19.18-.2.19-.19.18-.19a.19.19,0,0,0,.19-.2.18.18,0,0,0,.18-.19.19.19,0,0,0,.19-.2h.74l-.37,1.75h0l-4.08,20.54C184.5,262.66,208.07,238.82,219,228Zm-46.58-2.13,1.86-.58c0,.19.18.58.18.77a5.88,5.88,0,0,0,5.75,3.88,8.63,8.63,0,0,0,2.23-.39,6,6,0,0,0,2.79-2.52l-1.86-1.16a5.71,5.71,0,0,0,.37-1.74,5.82,5.82,0,0,0-.37-1.94l4.08-1.36c1.49,4.46-.55,9.5-4.64,11.05A8.75,8.75,0,0,1,172.44,225.83Z" transform="translate(-127.34 -1)"/></svg>