<?xml version="1.0" encoding="utf-8"?>
<!-- Generator: Adobe Illustrator 19.2.1, SVG Export Plug-In . SVG Version: 6.00 Build 0)  -->
<svg version="1.1" id="layer" xmlns="http://www.w3.org/2000/svg" xmlns:xlink="http://www.w3.org/1999/xlink" x="0px" y="0px"
	 viewBox="0 0 652 652" style="enable-background:new 0 0 652 652;" xml:space="preserve">
<style type="text/css">
	.st0{fill:#DB0D15;}
</style>
<g id="CD_Projekt_RED_horizontal_1_">
	<g>
		<path class="st0" d="M64,421.8c3.8-4,8.2-8.6,10.7-10.7c-0.7-0.1-1.9-0.2-3.2-0.4c-2.8,2.4-6.2,6.1-9.3,9.5
			c-4,4.3-7.2,7.9-7.2,7.9l-0.1,0.1c-2.5,0.7-6.9,1.9-9.9,2.8c-4.3,1.2-8.2,0.9-8.2,3.8c0,0-4.5,2.4-3.5,6c0,0,9-7.1,16.6-8.4
			c0,0-4.7,3.1-4.3,7.1c0,0,6.3-9.5,13.7-3.7c0,0-3.3-4.5-1.9-6.9C58.7,427.5,61.2,424.8,64,421.8z M49.9,310.3
			c-0.4,0.2-0.8,0.2-1.2,0.2c-1.3,0-2.5-0.8-3.1-2c0-0.1-0.1-0.2-0.1-0.4l-1,0.3c0.8,2.3,3.3,3.7,5.5,3c0.5-0.2,1-0.5,1.4-0.9
			c1.2-1.1,1.7-3.1,1.1-4.8l-2.2,0.7c0.1,0.3,0.2,0.7,0.2,1c0,0.3-0.1,0.6-0.2,0.9l1,0.6c-0.2,0.3-0.4,0.5-0.6,0.7
			C50.5,310,50.2,310.1,49.9,310.3z M140.1,303.1l-44,10.7l0,0l0,0l86.1-37.3l-70.9,8.7l38-27.7l-40.9,16l0,0l6.1-12.3l-29,20.9
			l-0.2-0.4l41.3-89.3l-67.2,79.5L59,228.5l-24.7,57.9l-1.3-17l-12.1,44.3l0,0l0,0c0,0,1.6-1.2,3.9-1.8l0,0c0.2,0,0.3-0.1,0.5-0.1
			c0,0,0,0,0.1,0c0.2,0,0.3-0.1,0.5-0.1c0,0,0,0,0.1,0c0.2,0,0.3-0.1,0.5-0.1l0,0c0.2,0,0.4,0,0.5,0h0.1c0.2,0,0.4,0,0.6,0
			c0,0,0,0,0.1,0c0.2,0,0.3,0,0.5,0h0.1c0.2,0,0.4,0.1,0.5,0.1h0.1c0.2,0,0.4,0.1,0.6,0.2c4.2,1.5,7.6,0,7.6,0s3.9,2.5,3.9,4.6l0,0
			l0,0c0,0-5.1,0.3-5.1-1.9c0,0-6.6-2.3-15.8,1.1l19.4,8.4c0-0.1-1-3.7,0.1-5c0.3-0.4,1-0.6,1.9-0.3c0.3,0.1,0.6,0.1,0.8-0.1
			c1.5-1.5-5.8-15.1-5.8-15.1s-6.5-0.6-12.2,5.3c-0.4,0.4-0.8,0.8-1.1,1.3l0,0l0,0c0.6-1,2.4-4,5.5-6.5c1.8-1.5,4.2-3,6.9-3.7
			c0.7-1.8-0.2-0.6,1.3-1.6l0,0c0.7-4.8,3.5-17,12.7-27.5c0.6-0.7,1.2-1.4,1.9-2c0,0-2.3,4.5-2.3,7.6c0.1-0.1,2.4-3.6,5.7-6.8l0,0
			l0,0c0,0,0,0.1-0.1,0.1c-0.6,1.3-5,10.8-4.6,13.6c0,0,0,0,0,0.1l9-8.3l0,0c-0.3,0.3-8.5,11.4-9.3,15.2l0,0l13.6-9.7l0,0
			c0,0.1-1.7,2.4-2.4,3.7c-0.5,0.9-0.6,1.2-0.6,1.3v0.1l7.3-3.2c0,0-0.3,0.4-0.8,0.9l-2.8,2.8l-0.7,0.7l-5,5l-0.1,0.1l-3.8,3.9
			l-2.4,2.4l0,0c0,0-1.9,2-2.2,3.2c-0.2,1,0.9,1.7,0.9,1.7l0,0c1,0.5,1.8,1.4,2.3,2.4c0.3,0.6,0.4,1.3,0.4,2c0,1.4-0.6,2.8-1.5,3.7
			c-0.9,0.9-2.3,1.5-3.9,1.5c-1.3,0-2.5-0.5-3.6-1.3c0.2,0.2,2.9,3.6,7.7,1l6.1-4.4L59,308l6.3-4.6c1.5,1.7,2.9,3.9,4.2,6.2l0,0
			c-3.8,3.6-10.1,9.7-16.4,16.4c-3.8,4-7.5,8.3-10.8,12.2l0,0l0,0l2.2-10.6l0,0l0.2-0.9l0,0l0,0c0,0,0,0-0.1,0l0,0c0,0,0,0-0.1,0
			l0,0h-0.1c0,0,0,0-0.1,0c0,0-0.1,0-0.1,0.1c0,0,0,0-0.1,0.1c0,0,0,0-0.1,0.1l-0.1,0.1l-0.1,0.1l-0.1,0.1c-0.1,0-0.1,0.1-0.1,0.1
			l-0.1,0.1l-0.1,0.1c-0.1,0-0.1,0.1-0.1,0.1c0,0.1-0.1,0.1-0.2,0.1l-0.1,0.1c-0.1,0-0.1,0.1-0.2,0.2l-0.1,0.1
			c0,0.1-0.1,0.1-0.2,0.2l-0.1,0.1l-0.1,0.1l0,0c-0.1,0.1-0.1,0.1-0.2,0.2c-0.1,0-0.1,0.1-0.2,0.2c-0.1,0.1-0.1,0.1-0.2,0.2
			c-0.1,0.1-0.1,0.1-0.2,0.2c0,0.1-0.1,0.1-0.1,0.2l-0.1,0.1c0,0,0,0,0,0.1l-0.1,0.1c-0.1,0.1-0.1,0.1-0.2,0.2l0,0c0,0,0,0-0.1,0.1
			c0,0.1-0.1,0.1-0.1,0.1c-0.1,0.1-0.1,0.2-0.2,0.3s-0.1,0.1-0.2,0.2c-0.1,0.1-0.2,0.2-0.2,0.3c-0.1,0.1-0.1,0.2-0.2,0.2
			c-0.1,0.1-0.2,0.2-0.3,0.3c-0.1,0.1-0.1,0.2-0.2,0.3c-0.1,0.1-0.2,0.2-0.2,0.3c-0.1,0.1-0.1,0.2-0.2,0.2c-0.1,0.1-0.2,0.2-0.3,0.4
			c-0.1,0.1-0.1,0.2-0.2,0.2c-0.1,0.1-0.2,0.3-0.3,0.4c0,0.1-0.1,0.1-0.1,0.2c-0.2,0.2-0.3,0.5-0.5,0.7l0,0
			c-0.2,0.2-0.3,0.5-0.5,0.7c0,0.1-0.1,0.1-0.1,0.2c-0.1,0.2-0.2,0.3-0.3,0.5c-0.1,0.1-0.1,0.2-0.2,0.3c-0.1,0.2-0.2,0.3-0.3,0.5
			c-0.1,0.1-0.1,0.2-0.2,0.3c-0.1,0.2-0.2,0.4-0.3,0.5c0,0.1-0.1,0.2-0.2,0.3c-0.1,0.2-0.2,0.4-0.3,0.5c-0.1,0.1-0.1,0.2-0.2,0.3
			c-0.1,0.2-0.2,0.4-0.3,0.6c0,0.1-0.1,0.2-0.2,0.3c-0.5,0.9-1,1.8-1.5,2.9l0,0l0,0l0,0l-2.5,0.4c0.5-1.3,1-2.4,1.5-3.6l-4.1,5.7
			l4.1-0.4c-3.5,8.1-6,18.4-6,33.4l3.4-2.1c3,16.6,16.6,23.9,16.6,23.9v-0.1c7.5,5,16.7,8.4,26.9,9.8l0,0c1.4,0.2,2.5,0.3,2.9,0.3
			l0,0c0.2,0,0.3,0.1,0.5,0.1c5.5,0.5,10.8,0.3,15.9-0.5c0,0.2,0,0.4,0,0.6c0,3.3,1.8,6,4.2,6.2c-4.8,8.2-8.7,19-8.7,19.1
			c-0.2,0.5-0.6,1.4-0.9,1.7c-1.2,0.3-1.3,0.3-2.5,0.7l0,0c-0.4-0.4-4.2-1.1-8.1,0.3l0,0l0,0c-2.1,0.9-4.3,2.8-5.8,5.6
			c1.5-1.2,4.5-3.4,6.8-3.1c-2.9,1.6-7.6,4.7-8.3,9.1c0,0,16.9-11.8,25.3-9.7c0,0-1.2,1.4,1.6,6.5l1.3-4.8c1.5-4.6-4.3-5.3-6.7-5.4
			v-0.1c0,0,0.3-0.7,0.7-1.9c1.4-3.7,4.8-11.9,8.5-17.7c0.1-0.1,0.1-0.2,0.1-0.4l-0.7-0.9c0,0,0.5-0.5,0.7-0.9
			c0.5-0.8,1.1-2,1.1-3.8c0-1.3-0.3-3.1-1.3-5.2l0,0l0,0l2.1-1c0.1,0.3,0.2,0.5,0.3,0.8c0,0.1,0.1,0.2,0.1,0.2
			c0.1,0.2,0.1,0.3,0.2,0.5c0,0.1,0.1,0.2,0.1,0.3c0.1,0.2,0.1,0.4,0.2,0.5c0,0.1,0,0.1,0.1,0.2l12.3-3.8l-2.8-2.2l0,0l0,0l0,0l0,0
			l-0.1-0.1h-0.1l0,0l-46.7-42.4l0,0l0,0c13,6.3,28.2,13.7,53.9,25.6c25.4,11.7,41.5,18.5,49.7,21.9c0.1,0,0.1,0.1,0.2,0.1l0,0
			c1.2,0.5,2.2,0.9,3.1,1.2c1.7,0.7,3.5,1.3,3.6,1.4c0.1-0.1,0.3-0.1,0.4-0.2l-94.5-64.9L140.1,303.1z M74.6,323L74.6,323
			l-14.1,10.7l10.1-22.3l0,0l0,0C72.3,314.9,73.6,318.8,74.6,323L74.6,323z M125,399.9l0.3,1.7l0,0l0,0l16.5,9.7l4.2,2.4l-2.2-5.9
			c13.6,4,24.7,4.3,32.1,0.7l0,0C163,412.4,131.2,401.6,125,399.9z"/>
		<path d="M36.2,314.4c0,2.2,5.1,1.9,5.1,1.9c0-2.1-3.9-4.6-3.9-4.6s-3.6,1.5-7.7,0c-1.6-0.6-3.5-0.4-4.9,0
			c-1.9,1.3-4.4,3.7-4.4,3.7C29.6,312,36.2,314.4,36.2,314.4z M70.6,311.5l-10.1,22.3L74.6,323C73.6,318.8,72.2,314.9,70.6,311.5z
			 M175.8,408.5c0,0-31.7-11.9-110.6-50.2l47,42.8l0,0l0,0c4.2-1.7,7.1-3,13,0.4l-0.3-1.7C131.1,401.6,163.1,412.4,175.8,408.5z
			 M99.5,405.6c0.9,2.1,1.3,3.8,1.3,5.2c0,1.7-0.7,3.1-1.1,3.8c-0.3,0.4-0.7,0.9-0.7,0.9l1.4,1.9c0.1-0.1,2.9-2.1,2.9-6.6
			c0-1.7-0.4-3.8-1.5-6.2L99.5,405.6z M71.3,410.7c2.2,0.3,4.3,0.5,4.3,0.5l0.1-1.2c0,0-2-0.2-4.2-0.5L71.3,410.7z M69.6,309.5
			c-1.2-2.3-2.6-4.5-4.2-6.2l-12.6,9.3c-5.1,2.6-7.7-1-7.7-1c0.9,0.8,2.1,1.3,3.6,1.3c3,0,5.4-2.3,5.4-5.2c0-0.7-0.1-1.4-0.4-2
			c-0.5-1-1.3-1.9-2.3-2.4l0,0c0,0-1.1-0.6-0.9-1.7c0.2-1,2.2-3.2,2.2-3.2l0,0l6.2-6.3l0.1-0.1l5.6-5.7l2.8-2.9
			c0.5-0.5,0.8-0.9,0.8-0.9l-7.3,3.2c0,0-0.1-0.1,0.6-1.4c0.7-1.3,2.4-3.7,2.4-3.7l-13.6,9.7c0.8-3.8,9.3-15.2,9.3-15.2l-9,8.3
			c-0.6-2.9,4.7-13.8,4.7-13.8c-3.3,3.3-5.7,6.8-5.7,6.8c0-3.2,2.3-7.6,2.3-7.6c-10.9,10.9-14,24.6-14.7,29.7
			c-1.5,1-0.6-0.2-1.3,1.6c-7.3,2-11.4,8.6-12.4,10.2c5.9-7.3,13.5-6.6,13.5-6.6s8.9,16.5,5,15.2c-3.9-1.3-2,5.2-2,5.2l-7.3-3.2
			c1.2,2.3,3.6,7.9,2.2,13.9c-1.5,2.2-3,5.1-4.3,8.5l2.5-0.4c0.5-1,1-2,1.4-3c0.1-0.1,0.1-0.2,0.2-0.3c0.1-0.2,0.2-0.4,0.3-0.6
			c0.1-0.1,0.1-0.2,0.2-0.3c0.1-0.2,0.2-0.3,0.3-0.5c0.1-0.1,0.1-0.2,0.2-0.3c0.1-0.2,0.2-0.4,0.3-0.5c0.1-0.1,0.1-0.2,0.2-0.3
			c0.1-0.2,0.2-0.3,0.3-0.5c0-0.1,0.1-0.2,0.2-0.3c0.1-0.2,0.2-0.3,0.3-0.5c0-0.1,0.1-0.2,0.1-0.2c0.1-0.2,0.3-0.5,0.5-0.7l0,0
			c0.2-0.2,0.3-0.5,0.5-0.7c0-0.1,0.1-0.1,0.1-0.2c0.1-0.2,0.2-0.3,0.3-0.5c0.1-0.1,0.1-0.1,0.2-0.2s0.2-0.3,0.3-0.4
			s0.1-0.2,0.2-0.2c0.1-0.1,0.2-0.2,0.3-0.3c0.1-0.1,0.1-0.2,0.2-0.2c0.1-0.1,0.2-0.2,0.2-0.3c0.1-0.1,0.1-0.2,0.2-0.2
			c0.1-0.1,0.2-0.2,0.2-0.3c0.1-0.1,0.1-0.1,0.2-0.2s0.2-0.2,0.2-0.3c0.1-0.1,0.1-0.1,0.2-0.2s0.1-0.1,0.2-0.2
			c0.1-0.1,0.1-0.1,0.2-0.2s0.1-0.1,0.2-0.2c0,0,0.1-0.1,0.2-0.2c0.1-0.1,0.1-0.1,0.2-0.2c0,0,0.1-0.1,0.2-0.2s0.1-0.2,0.2-0.2
			c0.1,0,0.1-0.1,0.1-0.1c0.1-0.1,0.2-0.2,0.3-0.3c0.1,0,0.1-0.1,0.1-0.1c0-0.1,0.1-0.1,0.2-0.2l0.1-0.1c0.1,0,0.1-0.1,0.2-0.1
			c0.1,0,0.1-0.1,0.1-0.1c0-0.1,0.1-0.1,0.1-0.1l0.1-0.1l0.1-0.1l0.1-0.1l0.1-0.1l0.1-0.1c0,0,0.1,0,0.1-0.1c0,0,0.1,0,0.1-0.1
			c0,0,0.1,0,0.1-0.1c0,0,0,0,0.1,0h0.1l0,0c0,0,0,0,0.1,0l0,0c0,0,0,0,0.1,0l0,0l0,0l-0.2,0.9l0,0l-2.2,10.6
			C51,327.4,63.7,315.1,69.6,309.5z M44.5,308.4l1-0.3c0,0.1,0.1,0.3,0.1,0.4c0.5,1.3,1.7,2,3.1,2c0.4,0,0.8-0.1,1.2-0.2
			c0.6-0.3,1.2-0.7,1.5-1.3l-1-0.6c0.1-0.3,0.2-0.6,0.2-0.9c0-0.4-0.1-0.7-0.2-1l2.2-0.7c0.8,2.3-0.3,4.9-2.5,5.7
			C47.7,312,45.3,310.8,44.5,308.4z"/>
	</g>
	<g>
		<path d="M250.8,326.2c-1.5-0.4-3.8-0.6-6.7-0.6h-6.3v35.9l0.7-0.5l5.2-3.7l0.2-0.1V347h2c3.7,0,6.7-1,8.9-2.9
			c2.2-1.9,3.4-4.6,3.4-7.8c0-3.1-1-5.6-3.1-7.6C253.8,327.4,252.3,326.6,250.8,326.2z M245.5,341.9h-1.6v-11h1.8
			c4.8,0,7.2,1.7,7.2,5.3C252.9,340,250.4,341.9,245.5,341.9z M284.5,346.2c2.1-0.6,3.9-1.7,5.2-3.4c1.4-1.8,2.2-4.1,2.2-6.6
			c0-3.3-1.2-5.9-3.6-7.9c-2.1-1.7-5.5-2.6-10.2-2.6h-6.5v35.9l0.6-0.5l5.2-3.7l0.2-0.1v-10.3h0.3l9.8,14l0.2,0.3l0.3-0.2l4.2-3.1
			l0.3-0.2l-0.2-0.3L284.5,346.2z M277.7,341.9v-0.4l0,0v-10.1l0,0v-0.5h1.8c4.8,0,7.2,1.7,7.2,5.3c0,3.8-2.4,5.7-7.4,5.7H277.7
			L277.7,341.9z M193.3,326.6c-2-0.7-4.9-1-8.4-1h-7.6V361h7.6c3.6,0,6.3-0.3,8.3-1c2-0.6,4.1-1.8,6-3.5c3.8-3.4,5.7-7.8,5.7-13.2
			s-1.8-9.9-5.5-13.1C197.6,328.5,195.6,327.3,193.3,326.6z M195.1,352.2c-1.2,1.1-2.5,1.9-4.1,2.3c-1.5,0.5-3.4,0.7-5.7,0.7h-1.9
			v-23.9h1.9c4.3,0,7.6,1,9.8,3.1c2.4,2.2,3.7,5.3,3.7,9C198.7,347,197.5,349.9,195.1,352.2z M155.1,330.7c2.2,0,4.5,0.6,6.6,1.9
			l0.4,0.2l0.2-0.4l2.5-4.4l0.2-0.4l-0.4-0.2c-3-1.7-6.1-2.5-9.2-2.5c-5.8,0-10.6,2.1-14.3,6.5c-3,3.6-4.5,7.5-4.5,12.1
			c0,5,1.8,9.4,5.3,12.9c3.6,3.6,7.9,5.3,13,5.3c3.4,0,6.6-0.9,9.6-2.6l0.2-0.1v-0.3v-0.1l-2.5-4.4l-0.2-0.4l-0.4,0.2
			c-0.7,0.4-1.4,0.8-2,1.1c-1.2,0.6-2.8,0.8-4.5,0.8c-3.4,0-6.3-1.2-8.7-3.7c-2.3-2.3-3.6-5.4-3.6-8.9c0-3.6,1.2-6.6,3.6-9.1
			C148.8,331.9,151.8,330.7,155.1,330.7z M555.1,331.4l0.1-0.1l4.8-4.9l0.7-0.7h-20.6v35.5h15l0.1-0.1l4.7-4.9l0.7-0.7h-14.4v-11
			h4.5l0.1-0.1l4.9-4.9l0.7-0.7h-10.2v-7.1h8.9V331.4z M450.9,331.4h7.9v30.1l0.7-0.5l5.2-3.7l0.2-0.1v-25.8h7.9v-5.8h-22V331.4z
			 M322.3,325c-5.1,0-9.5,1.8-13.1,5.4s-5.5,7.8-5.5,12.8c0,5.6,2,10.3,6,13.8c3.6,3.2,7.7,4.8,12.3,4.8c5.1,0,9.6-1.8,13.2-5.4
			c3.7-3.6,5.5-7.8,5.5-12.9c0-5-1.8-9.5-5.4-13C331.7,326.8,327.3,325,322.3,325z M331,352.3c-2.4,2.4-5.4,3.7-8.9,3.7
			c-3.2,0-6.1-1.2-8.6-3.6c-2.4-2.3-3.8-5.4-3.8-9.2c0-3.5,1.2-6.5,3.6-8.9c2.3-2.4,5.4-3.7,8.9-3.7s6.4,1.2,8.8,3.7
			c2.3,2.4,3.6,5.4,3.6,9C334.7,346.8,333.4,349.8,331,352.3z M597,330.2c-1.8-1.6-3.9-2.9-6.1-3.6c-2-0.7-4.9-1-8.4-1h-7.6V361h7.6
			c3.6,0,6.3-0.3,8.3-1c2-0.6,4.1-1.8,6-3.5c3.8-3.4,5.7-7.8,5.7-13.2C602.5,337.9,600.6,333.5,597,330.2z M592.7,352.2
			c-1.2,1.1-2.5,1.9-4.1,2.3c-1.5,0.5-3.5,0.7-5.7,0.7H581v-23.9h1.9c4.3,0,7.6,1,9.8,3.1c2.4,2.2,3.7,5.3,3.7,9
			C596.4,347,595.1,349.9,592.7,352.2z M516.8,346.2c2.1-0.6,3.9-1.7,5.2-3.4c1.4-1.8,2.2-4.1,2.2-6.6c0-3.3-1.2-5.9-3.5-7.9
			c-2.1-1.7-5.5-2.6-10.2-2.6H504v35.9l0.7-0.5l5.2-3.7l0.2-0.1v-10.3h0.3l9.8,14l0.3,0.3l0.3-0.2l4.2-3.1l0.3-0.2l-0.2-0.3
			L516.8,346.2z M509.9,341.9v-11h1.8c4.8,0,7.2,1.7,7.2,5.3c0,3.8-2.4,5.7-7.4,5.7H509.9z M434.3,325.7l-12.7,13v-13.6l-0.7,0.5
			l-5.2,3.7l-0.2,0.1v32l0.7-0.5l5.2-3.7l0.2-0.1v-10.7l0.6-0.6l12.1,15.1l0.2,0.3l0.3-0.2l4.5-3.1l0.4-0.3l-0.3-0.4l-12.9-15.6
			l15.4-15.4l0.7-0.7h-8.2L434.3,325.7z M359.5,329.4l-0.2,0.1v19c0,2.9-0.3,4.9-0.9,6c-0.5,1-1.4,1.5-2.9,1.5c-1,0-2.1-0.4-3.3-1.2
			l-0.4-0.2l-0.2,0.4l-2.5,4.5l-0.2,0.4l0.3,0.2c1.9,1.1,4.1,1.7,6.3,1.7c3.1,0,5.5-1.1,7.2-3.3c0.9-1.1,1.6-2.4,2-4
			c0.4-1.3,0.6-3.4,0.6-6.1v-23.2l-0.7,0.5L359.5,329.4z M396.9,331.4l0.1-0.1l4.8-4.9l0.7-0.7H382v35.5h15l0.1-0.1l4.7-4.9l0.7-0.7
			H388v-11h4.5l0.1-0.1l4.9-4.9l0.7-0.7H388v-7.1h9V331.4z"/>
		<g>
			<path d="M614.1,337.3c-3.5,0-6.2-2.8-6.2-6.2c0-3.5,2.8-6.2,6.2-6.2s6.2,2.8,6.2,6.2C620.3,334.6,617.5,337.3,614.1,337.3z
				 M614.1,325.9c-3,0-5.3,2.3-5.3,5.3c0,2.9,2.3,5.3,5.3,5.3s5.3-2.3,5.3-5.3C619.4,328.1,617,325.9,614.1,325.9z M615.8,334.7
				l-1.8-2.9h-1.2v2.9h-1v-7.1h2.9c1.2,0,2.3,0.8,2.3,2.1c0,1.5-1.4,2.1-1.8,2.1l1.9,2.9L615.8,334.7L615.8,334.7z M614.6,328.4
				h-1.9v2.5h1.9c0.6,0,1.3-0.5,1.3-1.2C615.9,328.9,615.2,328.4,614.6,328.4z"/>
		</g>
	</g>
</g>
</svg>
