<?xml version="1.0" encoding="utf-8"?>
<!-- Generator: Adobe Illustrator 26.0.1, SVG Export Plug-In . SVG Version: 6.00 Build 0)  -->
<svg version="1.1" id="Camada_1" xmlns="http://www.w3.org/2000/svg" xmlns:xlink="http://www.w3.org/1999/xlink" x="0px" y="0px"
	 viewBox="0 0 95 95" style="enable-background:new 0 0 95 95;" xml:space="preserve">
<style type="text/css">
	.st0{fill:#DB0D15;}
</style>
<g>
	<path class="st0" d="M29.5,84.8c1.8-1.5,3.8-3.2,5-4c-0.3,0-0.9-0.1-1.5-0.1c-1.3,0.9-2.9,2.3-4.4,3.5c-1.9,1.6-3.4,2.9-3.4,2.9
		l0,0c-1.2,0.3-3.2,0.7-4.6,1c-2,0.4-3.8,0.3-3.8,1.4c0,0-2.1,0.9-1.6,2.2c0,0,4.2-2.6,7.8-3.1c0,0-2.2,1.1-2,2.6c0,0,3-3.5,6.4-1.4
		c0,0-1.5-1.7-0.9-2.6C27.1,86.9,28.2,85.9,29.5,84.8z M22.9,43.6c-0.2,0.1-0.4,0.1-0.6,0.1c-0.6,0-1.2-0.3-1.5-0.7c0,0,0-0.1,0-0.1
		l-0.5,0.1c0.4,0.9,1.5,1.4,2.6,1.1c0.2-0.1,0.5-0.2,0.7-0.3c0.6-0.4,0.8-1.1,0.5-1.8l-1,0.3c0,0.1,0.1,0.3,0.1,0.4
		c0,0.1,0,0.2-0.1,0.3l0.5,0.2c-0.1,0.1-0.2,0.2-0.3,0.3C23.2,43.5,23.1,43.5,22.9,43.6z M65.2,40.9l-20.6,4l0,0l0,0L85,31.1
		l-33.3,3.2l17.8-10.2L50.4,30l0,0l2.9-4.5l-13.6,7.7L39.5,33L58.9,0L27.4,29.4l-0.2-16L15.6,34.8L15,28.5L9.3,44.9l0,0l0,0
		c0,0,0.8-0.4,1.8-0.7l0,0c0.1,0,0.1,0,0.2,0c0,0,0,0,0,0c0.1,0,0.1,0,0.2,0c0,0,0,0,0,0c0.1,0,0.1,0,0.2,0l0,0c0.1,0,0.2,0,0.2,0h0
		c0.1,0,0.2,0,0.3,0c0,0,0,0,0,0c0.1,0,0.1,0,0.2,0h0c0.1,0,0.2,0,0.2,0h0c0.1,0,0.2,0,0.3,0.1c2,0.6,3.6,0,3.6,0s1.8,0.9,1.8,1.7
		l0,0l0,0c0,0-2.4,0.1-2.4-0.7c0,0-3.1-0.9-7.4,0.4l9.1,3.1c0,0-0.5-1.4,0-1.8c0.1-0.1,0.5-0.2,0.9-0.1c0.1,0,0.3,0,0.4,0
		c0.7-0.6-2.7-5.6-2.7-5.6s-3-0.2-5.7,2c-0.2,0.1-0.4,0.3-0.5,0.5l0,0l0,0c0.3-0.4,1.1-1.5,2.6-2.4c0.8-0.6,2-1.1,3.2-1.4
		c0.3-0.7-0.1-0.2,0.6-0.6l0,0c0.3-1.8,1.6-6.3,6-10.2c0.3-0.3,0.6-0.5,0.9-0.7c0,0-1.1,1.7-1.1,2.8c0,0,1.1-1.3,2.7-2.5l0,0l0,0
		c0,0,0,0,0,0c-0.3,0.5-2.3,4-2.2,5c0,0,0,0,0,0l4.2-3.1l0,0c-0.1,0.1-4,4.2-4.4,5.6l0,0l6.4-3.6l0,0c0,0-0.8,0.9-1.1,1.4
		C28,34.4,28,34.5,28,34.5v0l3.4-1.2c0,0-0.1,0.1-0.4,0.3l-1.3,1L29.4,35L27,36.8l0,0l-1.8,1.4l-1.1,0.9l0,0c0,0-0.9,0.7-1,1.2
		c-0.1,0.4,0.4,0.6,0.4,0.6l0,0c0.5,0.2,0.8,0.5,1.1,0.9c0.1,0.2,0.2,0.5,0.2,0.7c0,0.5-0.3,1-0.7,1.4c-0.4,0.3-1.1,0.6-1.8,0.6
		c-0.6,0-1.2-0.2-1.7-0.5c0.1,0.1,1.4,1.3,3.6,0.4l2.9-1.6l0.2-0.1l3-1.7c0.7,0.6,1.4,1.4,2,2.3l0,0c-1.8,1.3-4.7,3.6-7.7,6.1
		c-1.8,1.5-3.5,3.1-5.1,4.5l0,0l0,0l1-3.9l0,0l0.1-0.3l0,0l0,0c0,0,0,0,0,0l0,0c0,0,0,0,0,0l0,0h0c0,0,0,0,0,0c0,0,0,0,0,0
		c0,0,0,0,0,0c0,0,0,0,0,0l0,0l0,0l0,0c0,0,0,0,0,0l0,0l0,0c0,0,0,0,0,0c0,0,0,0-0.1,0l0,0c0,0,0,0-0.1,0.1l0,0c0,0,0,0-0.1,0.1l0,0
		l0,0l0,0c0,0,0,0-0.1,0.1c0,0,0,0-0.1,0.1c0,0,0,0-0.1,0.1c0,0,0,0-0.1,0.1c0,0,0,0,0,0.1l0,0c0,0,0,0,0,0l0,0c0,0,0,0-0.1,0.1l0,0
		c0,0,0,0,0,0c0,0,0,0,0,0c0,0,0,0.1-0.1,0.1c0,0,0,0-0.1,0.1c0,0-0.1,0.1-0.1,0.1c0,0,0,0.1-0.1,0.1c0,0-0.1,0.1-0.1,0.1
		c0,0,0,0.1-0.1,0.1c0,0-0.1,0.1-0.1,0.1c0,0,0,0.1-0.1,0.1c0,0-0.1,0.1-0.1,0.1c0,0,0,0.1-0.1,0.1c0,0-0.1,0.1-0.1,0.1
		c0,0,0,0,0,0.1c-0.1,0.1-0.1,0.2-0.2,0.3l0,0c-0.1,0.1-0.1,0.2-0.2,0.3c0,0,0,0,0,0.1c0,0.1-0.1,0.1-0.1,0.2c0,0,0,0.1-0.1,0.1
		c0,0.1-0.1,0.1-0.1,0.2c0,0,0,0.1-0.1,0.1c0,0.1-0.1,0.1-0.1,0.2c0,0,0,0.1-0.1,0.1c0,0.1-0.1,0.1-0.1,0.2c0,0,0,0.1-0.1,0.1
		c0,0.1-0.1,0.1-0.1,0.2c0,0,0,0.1-0.1,0.1c-0.2,0.3-0.5,0.7-0.7,1.1l0,0l0,0l0,0l-1.2,0.1c0.2-0.5,0.5-0.9,0.7-1.3l-1.9,2.1
		l1.9-0.1c-1.6,3-2.8,6.8-2.8,12.4l1.6-0.8c1.4,6.1,7.8,8.8,7.8,8.8v0c3.5,1.8,7.8,3.1,12.6,3.6l0,0c0.7,0.1,1.2,0.1,1.4,0.1l0,0
		c0.1,0,0.1,0,0.2,0c2.6,0.2,5.1,0.1,7.5-0.2c0,0.1,0,0.1,0,0.2c0,1.2,0.8,2.2,2,2.3c-2.3,3-4.1,7-4.1,7.1c-0.1,0.2-0.3,0.5-0.4,0.6
		c-0.6,0.1-0.6,0.1-1.2,0.3l0,0c-0.2-0.1-2-0.4-3.8,0.1l0,0l0,0c-1,0.3-2,1-2.7,2.1c0.7-0.4,2.1-1.3,3.2-1.1
		c-1.4,0.6-3.6,1.7-3.9,3.4c0,0,7.9-4.4,11.9-3.6c0,0-0.6,0.5,0.8,2.4l0.6-1.8c0.7-1.7-2-2-3.1-2v0c0,0,0.1-0.3,0.3-0.7
		c0.7-1.4,2.3-4.4,4-6.5c0,0,0-0.1,0-0.1L46,82.3c0,0,0.2-0.2,0.3-0.3c0.2-0.3,0.5-0.7,0.5-1.4c0-0.5-0.1-1.1-0.6-1.9l0,0l0,0l1-0.4
		c0,0.1,0.1,0.2,0.1,0.3c0,0,0,0.1,0,0.1c0,0.1,0,0.1,0.1,0.2c0,0,0,0.1,0,0.1c0,0.1,0,0.1,0.1,0.2c0,0,0,0,0,0.1l5.8-1.4L52.2,77
		l0,0l0,0l0,0l0,0l0,0h0l0,0L30.2,61.2l0,0l0,0c6.1,2.3,13.2,5.1,25.3,9.5c11.9,4.3,19.5,6.8,23.3,8.1c0,0,0,0,0.1,0l0,0
		c0.6,0.2,1,0.3,1.5,0.4c0.8,0.3,1.6,0.5,1.7,0.5c0,0,0.1,0,0.2-0.1l-44.3-24L65.2,40.9z M34.5,48.3L34.5,48.3l-6.6,4l4.7-8.2l0,0
		l0,0C33.4,45.3,34.1,46.7,34.5,48.3L34.5,48.3z M58.2,76.7l0.1,0.6l0,0l0,0l7.7,3.6l2,0.9l-1-2.2c6.4,1.5,11.6,1.6,15.1,0.3l0,0
		C76,81.4,61.1,77.4,58.2,76.7z"/>
	<path d="M16.5,45.1c0,0.8,2.4,0.7,2.4,0.7c0-0.8-1.8-1.7-1.8-1.7s-1.7,0.6-3.6,0c-0.8-0.2-1.6-0.1-2.3,0c-0.9,0.5-2.1,1.4-2.1,1.4
		C13.4,44.2,16.5,45.1,16.5,45.1z M32.6,44l-4.7,8.2l6.6-4C34.1,46.7,33.4,45.3,32.6,44z M82,79.9c0,0-14.9-4.4-51.9-18.6l22,15.8
		l0,0l0,0c2-0.6,3.3-1.1,6.1,0.1l-0.1-0.6C61,77.4,76,81.4,82,79.9z M46.2,78.8c0.4,0.8,0.6,1.4,0.6,1.9c0,0.6-0.3,1.1-0.5,1.4
		c-0.1,0.1-0.3,0.3-0.3,0.3l0.7,0.7c0,0,1.4-0.8,1.4-2.4c0-0.6-0.2-1.4-0.7-2.3L46.2,78.8z M33,80.7c1,0.1,2,0.2,2,0.2l0-0.4
		c0,0-0.9-0.1-2-0.2L33,80.7z M32.2,43.3c-0.6-0.9-1.2-1.7-2-2.3l-5.9,3.4c-2.4,1-3.6-0.4-3.6-0.4c0.4,0.3,1,0.5,1.7,0.5
		c1.4,0,2.5-0.9,2.5-1.9c0-0.3,0-0.5-0.2-0.7c-0.2-0.4-0.6-0.7-1.1-0.9l0,0c0,0-0.5-0.2-0.4-0.6c0.1-0.4,1-1.2,1-1.2l0,0l2.9-2.3
		l0,0l2.6-2.1l1.3-1.1c0.2-0.2,0.4-0.3,0.4-0.3l-3.4,1.2c0,0,0,0,0.3-0.5c0.3-0.5,1.1-1.4,1.1-1.4l-6.4,3.6c0.4-1.4,4.4-5.6,4.4-5.6
		l-4.2,3.1c-0.3-1.1,2.2-5.1,2.2-5.1c-1.5,1.2-2.7,2.5-2.7,2.5c0-1.2,1.1-2.8,1.1-2.8c-5.1,4-6.6,9.1-6.9,11
		c-0.7,0.4-0.3-0.1-0.6,0.6c-3.4,0.7-5.3,3.2-5.8,3.8c2.8-2.7,6.3-2.4,6.3-2.4s4.2,6.1,2.3,5.6c-1.8-0.5-0.9,1.9-0.9,1.9l-3.4-1.2
		c0.6,0.9,1.7,2.9,1,5.1c-0.7,0.8-1.4,1.9-2,3.1l1.2-0.1c0.2-0.4,0.5-0.7,0.7-1.1c0,0,0-0.1,0.1-0.1c0-0.1,0.1-0.1,0.1-0.2
		c0,0,0-0.1,0.1-0.1c0-0.1,0.1-0.1,0.1-0.2c0,0,0-0.1,0.1-0.1c0-0.1,0.1-0.1,0.1-0.2c0,0,0-0.1,0.1-0.1c0-0.1,0.1-0.1,0.1-0.2
		c0,0,0-0.1,0.1-0.1c0-0.1,0.1-0.1,0.1-0.2c0,0,0-0.1,0-0.1c0-0.1,0.1-0.2,0.2-0.3l0,0c0.1-0.1,0.1-0.2,0.2-0.3c0,0,0,0,0-0.1
		c0-0.1,0.1-0.1,0.1-0.2c0,0,0,0,0.1-0.1c0,0,0.1-0.1,0.1-0.1c0,0,0-0.1,0.1-0.1c0,0,0.1-0.1,0.1-0.1c0,0,0-0.1,0.1-0.1
		c0,0,0.1-0.1,0.1-0.1c0,0,0-0.1,0.1-0.1c0,0,0.1-0.1,0.1-0.1c0,0,0,0,0.1-0.1c0,0,0.1-0.1,0.1-0.1c0,0,0,0,0.1-0.1c0,0,0,0,0.1-0.1
		c0,0,0,0,0.1-0.1c0,0,0,0,0.1-0.1c0,0,0,0,0.1-0.1c0,0,0,0,0.1-0.1c0,0,0,0,0.1-0.1c0,0,0-0.1,0.1-0.1s0,0,0,0c0,0,0.1-0.1,0.1-0.1
		c0,0,0,0,0,0c0,0,0,0,0.1-0.1l0,0c0,0,0,0,0.1,0c0,0,0,0,0,0c0,0,0,0,0,0l0,0l0,0l0,0l0,0l0,0c0,0,0,0,0,0c0,0,0,0,0,0c0,0,0,0,0,0
		c0,0,0,0,0,0h0l0,0c0,0,0,0,0,0l0,0c0,0,0,0,0,0l0,0l0,0l-0.1,0.3l0,0l-1,3.9C23.4,49.9,29.4,45.4,32.2,43.3z M20.4,42.9l0.5-0.1
		c0,0,0,0.1,0,0.1c0.2,0.5,0.8,0.7,1.5,0.7c0.2,0,0.4,0,0.6-0.1c0.3-0.1,0.6-0.3,0.7-0.5l-0.5-0.2c0-0.1,0.1-0.2,0.1-0.3
		c0-0.1,0-0.3-0.1-0.4l1-0.3c0.4,0.9-0.1,1.8-1.2,2.1C21.9,44.2,20.8,43.8,20.4,42.9z"/>
</g>
</svg>
